<?xml version="1.0" encoding="UTF-8" standalone="no"?>
<svg 
  version="1.1" 
  xmlns="http://www.w3.org/2000/svg" 
  xmlns:xlink="http://www.w3.org/1999/xlink" 
  xmlns:svg="http://www.w3.org/2000/svg"
  xmlns:rdf="http://www.w3.org/1999/02/22-rdf-syntax-ns#"
  xmlns:cc="http://creativecommons.org/ns#"
  xmlns:dc="http://purl.org/dc/elements/1.1/"
  viewBox="0 0 768 768"
  width="768"
  height="768"
>
<style>svg {background-color: white; }</style>"
<metadata id="metadata1">
Created by https://svgstud.io and licensed under CC-BY-SA 4.0 license. Please attribute https://svgstud.io
</metadata>
<metadata id="prompt">
chartapp, chart going up4
</metadata>
<metadata id="version">
7
</metadata>
<metadata id="metadata2">
<rdf:RDF>
<cc:Work
    rdf:about="">
    <cc:license
    rdf:resource="http://creativecommons.org/licenses/by-sa/4.0/" />
    <dc:creator>
        <cc:Agent>
            <dc:title>https://svgstud.io</dc:title>
        </cc:Agent>
    </dc:creator>
</cc:Work>
<cc:License
    rdf:about="http://creativecommons.org/licenses/by-sa/4.0/">
    <cc:permits
    rdf:resource="http://creativecommons.org/ns#Reproduction" />
    <cc:permits
    rdf:resource="http://creativecommons.org/ns#Distribution" />
    <cc:requires
    rdf:resource="http://creativecommons.org/ns#Notice" />
    <cc:requires
    rdf:resource="http://creativecommons.org/ns#Attribution" />
    <cc:permits
    rdf:resource="http://creativecommons.org/ns#DerivativeWorks" />
    <cc:requires
    rdf:resource="http://creativecommons.org/ns#ShareAlike" />
</cc:License>
</rdf:RDF>
</metadata>
<metadata id="uid">
6e41ec3d98c86a964bba42a49a1ae0d16fe512a8deb5ecfb89e664d6eb3972c3
</metadata>
<path stroke="none" fill="black" fill-rule="evenodd" d="M241.86,695.96C239.46,695.93 234.35,694.88 230.50,693.62C226.65,692.37 221.62,690.37 219.33,689.19C217.03,688.01 212.44,684.52 209.12,681.45C205.39,678.00 202.01,673.68 200.29,670.18C197.50,664.50 197.50,664.50 197.22,597.35C197.01,545.88 196.66,529.98 195.72,529.24C195.05,528.71 186.40,525.12 176.50,521.26C166.60,517.40 155.69,513.23 152.25,511.99C148.81,510.75 146.00,509.34 146.00,508.86C146.00,508.38 151.96,503.56 159.25,498.15C166.54,492.74 178.01,484.58 184.75,480.01C197.00,471.70 197.00,471.70 197.04,423.60C197.06,397.15 197.31,321.50 197.61,255.50C198.06,153.32 198.36,134.61 199.64,129.50C200.47,126.20 202.68,120.28 204.56,116.35C206.44,112.42 210.64,105.67 213.90,101.35C217.16,97.03 222.23,91.21 225.16,88.41C228.10,85.61 233.43,81.17 237.00,78.55C240.57,75.93 246.45,72.29 250.06,70.47C253.67,68.66 259.07,66.46 262.06,65.61C265.48,64.63 275.50,63.66 289.00,63.02C300.82,62.45 316.12,61.55 323.00,61.02C329.88,60.49 353.73,58.92 376.00,57.55C398.27,56.17 424.83,54.62 435.02,54.09C446.79,53.48 456.35,53.49 461.24,54.09C465.48,54.62 472.90,56.19 477.72,57.59C482.55,58.99 491.00,62.32 496.50,64.99C502.27,67.79 509.94,72.62 514.63,76.40C519.11,80.00 529.27,89.83 537.22,98.23C545.17,106.63 558.39,120.85 566.59,129.82C574.79,138.80 581.50,146.64 581.50,147.25C581.50,147.85 571.94,154.89 560.25,162.89C539.00,177.43 539.00,177.43 539.00,404.55C539.00,631.66 539.00,631.66 535.93,636.29C534.25,638.83 530.18,643.25 526.89,646.09C520.92,651.27 520.92,651.27 521.61,663.71C522.30,676.15 522.30,676.15 518.90,674.70C517.03,673.90 511.45,671.45 506.50,669.25C501.55,667.05 495.04,663.80 492.03,662.02C489.01,660.24 484.60,657.44 482.21,655.80C479.82,654.15 478.02,652.65 478.21,652.45C478.41,652.26 482.99,653.23 488.40,654.60C493.82,655.98 498.90,656.96 499.71,656.80C500.56,656.63 498.51,654.56 494.84,651.89C491.35,649.36 484.23,644.82 479.00,641.81C473.77,638.80 464.82,633.70 459.10,630.48C453.38,627.25 447.37,623.50 445.76,622.15C443.43,620.19 443.12,619.51 444.26,618.87C445.05,618.43 449.88,617.14 455.00,616.00C460.12,614.86 464.96,613.56 465.76,613.11C466.83,612.52 464.25,610.25 456.05,604.58C449.91,600.33 436.70,590.66 426.69,583.08C416.69,575.51 407.53,568.79 406.34,568.17C404.40,567.14 402.83,568.09 391.23,577.26C384.11,582.89 372.82,591.77 366.13,597.00C359.44,602.23 352.48,607.37 350.67,608.42C347.37,610.34 347.37,610.34 324.93,593.33C312.59,583.97 301.52,575.79 300.33,575.16C298.45,574.17 297.52,574.53 293.33,577.86C290.67,579.97 278.39,590.09 266.04,600.35C253.69,610.61 243.00,619.00 242.29,619.00C241.26,619.00 240.96,610.32 240.82,575.75C240.72,551.96 240.66,528.77 240.69,524.21C240.73,519.65 241.01,515.66 241.32,515.34C241.64,515.03 249.23,520.30 258.20,527.06C267.16,533.82 276.52,541.00 279.00,543.02C281.48,545.04 289.80,550.88 297.50,556.00C305.20,561.12 318.70,570.49 327.50,576.81C336.30,583.14 344.48,589.19 345.68,590.26C347.00,591.45 348.37,591.90 349.18,591.42C349.90,590.99 353.88,588.11 358.00,585.02C362.12,581.94 370.90,575.32 377.50,570.32C384.10,565.32 392.65,558.70 396.50,555.62C400.35,552.54 404.20,550.01 405.06,550.01C405.93,550.00 409.60,552.14 413.24,554.75C416.87,557.36 430.55,567.60 443.64,577.50C456.72,587.40 467.94,595.82 468.58,596.22C469.21,596.62 475.42,595.38 482.39,593.47C489.36,591.56 495.70,590.00 496.49,590.00C497.28,590.00 498.34,590.79 498.84,591.75C499.34,592.71 500.06,596.20 500.44,599.50C500.83,602.80 502.25,612.70 503.61,621.50C504.97,630.30 507.27,641.45 508.71,646.29C510.40,651.92 511.63,654.61 512.15,653.79C512.60,653.08 512.98,650.18 512.98,647.35C513.00,642.46 513.31,641.86 519.06,635.52C522.39,631.84 525.55,627.69 526.08,626.29C526.70,624.67 527.02,540.71 526.97,395.76C526.93,270.37 527.03,167.65 527.20,167.50C527.36,167.35 535.49,162.01 545.25,155.63C555.01,149.25 563.00,143.77 563.00,143.44C563.00,143.11 555.70,135.11 546.79,125.67C537.87,116.23 525.79,103.74 519.95,97.92C514.08,92.08 505.43,84.75 500.65,81.57C495.88,78.40 488.20,74.32 483.57,72.50C478.95,70.69 472.86,68.71 470.04,68.10C467.21,67.50 459.64,67.00 453.20,67.00C446.77,67.01 435.43,67.45 428.00,67.99C420.57,68.54 394.48,70.10 370.00,71.48C345.52,72.85 312.50,74.65 296.62,75.48C280.73,76.31 265.89,77.49 263.64,78.10C261.38,78.71 257.28,80.34 254.52,81.72C251.76,83.11 246.80,86.16 243.50,88.51C240.20,90.85 234.77,95.64 231.44,99.14C228.10,102.64 223.55,108.20 221.33,111.50C219.10,114.80 216.29,119.45 215.08,121.83C213.87,124.21 211.96,129.61 210.84,133.83C208.83,141.37 208.79,144.41 208.29,314.00C208.02,408.88 207.43,486.88 207.00,487.35C206.56,487.82 202.78,488.58 198.61,489.05C194.43,489.52 189.10,490.76 186.76,491.81C184.41,492.86 179.61,495.86 176.09,498.48C171.37,501.98 170.05,503.44 171.09,504.02C171.86,504.45 179.70,507.57 188.50,510.96C197.30,514.34 205.33,517.73 206.34,518.48C208.09,519.78 208.18,523.12 208.34,588.17C208.50,655.67 208.53,656.56 210.64,661.12C211.81,663.66 214.46,667.61 216.51,669.88C218.58,672.17 223.00,675.33 226.43,676.96C229.82,678.59 234.38,680.20 236.56,680.54C238.73,680.89 244.78,680.47 250.00,679.60C255.23,678.74 269.40,676.66 281.50,674.98C293.60,673.30 312.50,670.61 323.50,668.99C334.50,667.38 358.57,663.79 377.00,661.03C395.43,658.27 422.29,654.11 436.70,651.80C461.82,647.76 463.04,647.65 466.34,649.22C468.22,650.12 471.39,652.29 473.38,654.03C475.37,655.78 477.00,657.81 477.00,658.56C477.00,659.30 475.31,660.38 473.25,660.97C471.19,661.56 464.32,662.93 458.00,664.02C451.68,665.11 426.93,668.91 403.00,672.45C379.07,676.00 348.02,680.52 334.00,682.49C319.98,684.46 298.38,687.63 286.00,689.54C273.62,691.45 259.61,693.69 254.86,694.51C250.10,695.33 244.25,695.98 241.86,695.96zM239.72,483.96C238.19,483.98 236.72,483.43 236.46,482.74C236.19,482.05 236.09,465.97 236.24,446.99C236.50,412.50 236.50,412.50 245.00,412.75C249.68,412.88 254.51,413.23 255.75,413.51C257.94,414.02 258.00,414.40 258.09,427.27C258.14,436.11 258.45,439.57 259.01,437.70C259.48,436.15 259.97,429.43 260.10,422.76C260.34,410.91 260.29,410.61 257.92,409.09C256.59,408.23 255.17,407.08 254.77,406.52C254.36,405.96 254.02,391.14 254.02,373.60C254.00,341.70 254.00,341.70 266.65,342.29C273.60,342.62 279.70,343.30 280.19,343.79C280.71,344.31 280.97,372.86 280.80,411.76C280.63,448.65 280.24,479.10 279.92,479.42C279.59,479.74 274.42,480.44 268.42,480.98C262.41,481.52 254.12,482.40 250.00,482.94C245.88,483.47 241.25,483.93 239.72,483.96zM303.75,474.93C300.00,475.00 300.00,475.00 300.00,357.86C300.00,240.72 300.00,240.72 313.59,241.23C323.35,241.61 327.51,242.14 328.36,243.13C329.26,244.17 329.42,271.76 329.02,358.48C328.50,472.45 328.50,472.45 318.00,473.66C312.23,474.32 305.81,474.90 303.75,474.93zM352.31,422.91C350.00,422.96 347.98,422.66 347.81,422.25C347.64,421.84 347.73,391.57 348.00,355.00C348.50,288.50 348.50,288.50 356.00,288.85C360.12,289.04 366.20,289.49 369.50,289.85C375.50,290.50 375.50,290.50 375.50,355.50C375.50,420.50 375.50,420.50 366.00,421.66C360.77,422.30 354.61,422.87 352.31,422.91zM399.67,390.74C387.50,391.27 387.50,391.27 387.82,351.66C388.03,326.49 387.71,307.03 386.95,298.28C386.29,290.70 385.54,269.02 385.28,250.09C384.82,215.68 384.82,215.68 398.50,216.34C406.02,216.70 412.59,217.25 413.09,217.56C413.63,217.89 414.00,253.30 414.00,303.50C414.00,363.61 413.68,389.08 412.92,389.55C412.32,389.92 406.36,390.46 399.67,390.74zM446.96,320.41C441.72,320.79 437.10,320.77 436.71,320.38C436.32,319.99 436.00,287.95 436.00,249.18C436.00,178.69 436.00,178.69 451.12,179.37C459.43,179.75 467.09,180.51 468.13,181.07C469.95,182.04 470.01,184.31 469.76,250.29C469.50,318.50 469.50,318.50 463.00,319.12C459.43,319.46 452.21,320.04 446.96,320.41zM483.50,171.87C481.85,171.81 479.72,171.56 478.77,171.31C477.22,170.91 477.02,168.90 476.77,152.18C476.50,133.50 476.50,133.50 473.50,133.63C471.85,133.70 468.14,134.10 465.25,134.52C460.85,135.16 460.00,135.03 460.00,133.73C460.00,132.87 463.86,126.88 468.59,120.41C473.31,113.94 477.92,107.61 478.84,106.35C479.75,105.09 480.78,104.05 481.12,104.03C481.46,104.01 485.70,110.54 490.54,118.53C495.85,127.30 498.97,133.42 498.42,133.96C497.91,134.46 495.70,135.01 493.50,135.18C489.50,135.50 489.50,135.50 489.23,152.96C489.03,165.39 488.60,170.64 487.73,171.19C487.05,171.62 485.15,171.92 483.50,171.87z" />

</svg>